# Blender 4.1.1
# www.blender.org
o Mball
v 0.600000 0.775880 -0.600000
v 0.600000 0.600000 -0.775880
v 0.775880 0.600000 -0.600000
v 0.600000 0.200000 -0.960788
v 0.960788 0.200000 -0.600000
v 0.600000 -0.200000 -0.960788
v 0.960788 -0.200000 -0.600000
v 1.000000 -0.200000 -0.530196
v 1.000000 0.200000 -0.530196
v 1.115109 -0.200000 -0.200000
v 1.115109 0.200000 -0.200000
v 1.000000 -0.530196 -0.200000
v 1.000000 -0.530196 0.200000
v 1.115109 -0.200000 0.200000
v 1.000000 -0.200000 0.530196
v 1.000000 0.200000 0.530196
v 1.115109 0.200000 0.200000
v 1.000000 0.530196 0.200000
v 1.000000 0.530196 -0.200000
v 0.960788 0.600000 0.200000
v 0.960788 0.600000 -0.200000
v 0.600000 0.960788 0.200000
v 0.600000 0.960788 -0.200000
v 0.530196 1.000000 0.200000
v 0.530196 1.000000 -0.200000
v 0.200000 1.115109 0.200000
v 0.200000 1.115109 -0.200000
v 0.200000 1.000000 0.530196
v -0.200000 1.115109 0.200000
v -0.200000 1.000000 0.530196
v -0.200000 0.960788 0.600000
v 0.200000 0.960788 0.600000
v 0.200000 0.600000 0.960788
v -0.200000 0.600000 0.960788
v -0.200000 0.530196 1.000000
v 0.200000 0.530196 1.000000
v 0.200000 0.200000 1.115109
v -0.200000 0.200000 1.115109
v -0.200000 -0.200000 1.115109
v 0.200000 -0.200000 1.115109
v -0.200000 -0.530196 1.000000
v 0.200000 -0.530196 1.000000
v 0.200000 -0.600000 0.960788
v -0.200000 -0.600000 0.960788
v -0.200000 -0.960788 0.600000
v 0.200000 -0.960788 0.600000
v 0.200000 -1.000000 0.530196
v -0.200000 -1.000000 0.530196
v -0.200000 -1.115109 0.200000
v 0.200000 -1.115109 0.200000
v 0.200000 -1.115109 -0.200000
v -0.200000 -1.115109 -0.200000
v 0.200000 -1.000000 -0.530196
v -0.200000 -1.000000 -0.530196
v -0.200000 -0.960788 -0.600000
v 0.200000 -0.960788 -0.600000
v 0.200000 -0.600000 -0.960788
v -0.200000 -0.600000 -0.960788
v -0.200000 -0.530196 -1.000000
v 0.200000 -0.530196 -1.000000
v 0.200000 -0.200000 -1.115109
v -0.200000 -0.200000 -1.115109
v 0.200000 0.200000 -1.115109
v -0.200000 0.200000 -1.115109
v -0.200000 0.530196 -1.000000
v 0.200000 0.530196 -1.000000
v 0.200000 0.600000 -0.960788
v -0.200000 0.600000 -0.960788
v -0.200000 0.960788 -0.600000
v 0.200000 0.960788 -0.600000
v 0.200000 1.000000 -0.530196
v -0.200000 1.000000 -0.530196
v -0.200000 1.115109 -0.200000
v -0.530196 1.000000 -0.200000
v -0.530196 1.000000 0.200000
v -0.600000 0.960788 0.200000
v -0.600000 0.960788 -0.200000
v -0.960788 0.600000 0.200000
v -0.960788 0.600000 -0.200000
v -1.000000 0.530196 0.200000
v -1.000000 0.530196 -0.200000
v -1.000000 0.200000 -0.530196
v -0.960788 0.200000 -0.600000
v -0.775880 0.600000 -0.600000
v -1.000000 -0.200000 -0.530196
v -0.960788 -0.200000 -0.600000
v -1.000000 -0.530196 -0.200000
v -0.960788 -0.600000 -0.200000
v -0.775880 -0.600000 -0.600000
v -0.600000 -0.600000 -0.775880
v -0.600000 -0.200000 -0.960788
v -0.600000 -0.775880 -0.600000
v -1.000000 -0.530196 0.200000
v -0.960788 -0.600000 0.200000
v -0.600000 -0.960788 0.200000
v -0.600000 -0.960788 -0.200000
v -0.600000 -0.775880 0.600000
v -0.775880 -0.600000 0.600000
v -0.530196 -1.000000 0.200000
v -0.530196 -1.000000 -0.200000
v -1.000000 -0.200000 0.530196
v -0.960788 -0.200000 0.600000
v -1.000000 0.200000 0.530196
v -0.960788 0.200000 0.600000
v -0.600000 -0.200000 0.960788
v -0.600000 0.200000 0.960788
v -0.530196 0.200000 1.000000
v -0.530196 -0.200000 1.000000
v -1.115109 -0.200000 0.200000
v -1.115109 0.200000 0.200000
v -1.115109 -0.200000 -0.200000
v -1.115109 0.200000 -0.200000
v -0.600000 -0.600000 0.775880
v -0.600000 0.200000 -0.960788
v -0.530196 -0.200000 -1.000000
v -0.530196 0.200000 -1.000000
v -0.600000 0.600000 -0.775880
v -0.600000 0.775880 -0.600000
v -0.775880 0.600000 0.600000
v -0.600000 0.775880 0.600000
v -0.600000 0.600000 0.775880
v 0.530196 -0.200000 -1.000000
v 0.530196 0.200000 -1.000000
v 0.600000 -0.775880 -0.600000
v 0.600000 -0.600000 -0.775880
v 0.775880 -0.600000 -0.600000
v 0.600000 -0.960788 -0.200000
v 0.960788 -0.600000 -0.200000
v 0.600000 -0.960788 0.200000
v 0.960788 -0.600000 0.200000
v 0.600000 -0.775880 0.600000
v 0.775880 -0.600000 0.600000
v 0.600000 -0.600000 0.775880
v 0.600000 -0.200000 0.960788
v 0.960788 -0.200000 0.600000
v 0.600000 0.200000 0.960788
v 0.960788 0.200000 0.600000
v 0.600000 0.600000 0.775880
v 0.775880 0.600000 0.600000
v 0.600000 0.775880 0.600000
v 0.530196 -0.200000 1.000000
v 0.530196 0.200000 1.000000
v 0.530196 -1.000000 -0.200000
v 0.530196 -1.000000 0.200000
vn 0.4972 0.7106 -0.4978
vn 0.4986 0.4986 -0.7091
vn 0.7106 0.4972 -0.4978
vn 0.5867 0.1755 -0.7906
vn 0.7943 0.1867 -0.5781
vn 0.5781 -0.1867 -0.7943
vn 0.7906 -0.1755 -0.5867
vn 0.8928 -0.1842 -0.4112
vn 0.8847 0.2058 -0.4182
vn 0.9734 -0.1621 -0.1621
vn 0.9734 0.1621 -0.1621
vn 0.8928 -0.4112 -0.1842
vn 0.8927 -0.4106 0.1857
vn 0.9734 -0.1621 0.1621
vn 0.8847 -0.2058 0.4182
vn 0.8928 0.1842 0.4112
vn 0.9734 0.1621 0.1621
vn 0.8928 0.4112 0.1842
vn 0.8927 0.4106 -0.1857
vn 0.7906 0.5867 0.1755
vn 0.7906 0.5867 -0.1755
vn 0.5774 0.7945 0.1882
vn 0.5867 0.7906 -0.1755
vn 0.4182 0.8847 0.2058
vn 0.4106 0.8927 -0.1857
vn 0.1621 0.9734 0.1621
vn 0.1621 0.9734 -0.1621
vn 0.2058 0.8847 0.4182
vn -0.1621 0.9734 0.1621
vn -0.1842 0.8928 0.4112
vn -0.1755 0.7906 0.5867
vn 0.1882 0.7945 0.5774
vn 0.1755 0.5867 0.7906
vn -0.1755 0.5867 0.7906
vn -0.1857 0.4106 0.8927
vn 0.1857 0.4106 0.8927
vn 0.1621 0.1621 0.9734
vn -0.1621 0.1621 0.9734
vn -0.1621 -0.1621 0.9734
vn 0.1621 -0.1621 0.9734
vn -0.1842 -0.4112 0.8928
vn 0.1842 -0.4112 0.8928
vn 0.1755 -0.5867 0.7906
vn -0.1755 -0.5867 0.7906
vn -0.1755 -0.7906 0.5867
vn 0.1867 -0.7943 0.5781
vn 0.2058 -0.8847 0.4182
vn -0.1842 -0.8928 0.4112
vn -0.1621 -0.9734 0.1621
vn 0.1621 -0.9734 0.1621
vn 0.1621 -0.9734 -0.1621
vn -0.1621 -0.9734 -0.1621
vn 0.2058 -0.8847 -0.4182
vn -0.2058 -0.8847 -0.4182
vn -0.1882 -0.7945 -0.5774
vn 0.1882 -0.7945 -0.5774
vn 0.1755 -0.5867 -0.7906
vn -0.1755 -0.5867 -0.7906
vn -0.1842 -0.4112 -0.8928
vn 0.1857 -0.4106 -0.8927
vn 0.1621 -0.1621 -0.9734
vn -0.1621 -0.1621 -0.9734
vn 0.1621 0.1621 -0.9734
vn -0.1621 0.1621 -0.9734
vn -0.2058 0.4182 -0.8847
vn 0.1842 0.4112 -0.8928
vn 0.1755 0.5867 -0.7906
vn -0.1882 0.5774 -0.7945
vn -0.1755 0.7906 -0.5867
vn 0.1867 0.7943 -0.5781
vn 0.2058 0.8847 -0.4182
vn -0.1857 0.8927 -0.4106
vn -0.1621 0.9734 -0.1621
vn -0.4182 0.8847 -0.2058
vn -0.4112 0.8928 0.1842
vn -0.5867 0.7906 0.1755
vn -0.5781 0.7943 -0.1867
vn -0.7906 0.5867 0.1755
vn -0.7906 0.5867 -0.1755
vn -0.8927 0.4106 0.1857
vn -0.8928 0.4112 -0.1842
vn -0.8928 0.1842 -0.4112
vn -0.7906 0.1755 -0.5867
vn -0.7091 0.4986 -0.4986
vn -0.8847 -0.2058 -0.4182
vn -0.7943 -0.1867 -0.5781
vn -0.8927 -0.4106 -0.1857
vn -0.7906 -0.5867 -0.1755
vn -0.7106 -0.4972 -0.4978
vn -0.4986 -0.4986 -0.7091
vn -0.5867 -0.1755 -0.7906
vn -0.4960 -0.7127 -0.4960
vn -0.8928 -0.4112 0.1842
vn -0.7906 -0.5867 0.1755
vn -0.5867 -0.7906 0.1755
vn -0.5774 -0.7945 -0.1882
vn -0.4986 -0.7091 0.4986
vn -0.7091 -0.4986 0.4986
vn -0.4112 -0.8928 0.1842
vn -0.4182 -0.8847 -0.2058
vn -0.8928 -0.1842 0.4112
vn -0.7906 -0.1755 0.5867
vn -0.8847 0.2058 0.4182
vn -0.7943 0.1867 0.5781
vn -0.5867 -0.1755 0.7906
vn -0.5781 0.1867 0.7943
vn -0.4182 0.2058 0.8847
vn -0.4112 -0.1842 0.8928
vn -0.9734 -0.1621 0.1621
vn -0.9734 0.1621 0.1621
vn -0.9734 -0.1621 -0.1621
vn -0.9734 0.1621 -0.1621
vn -0.4986 -0.4986 0.7091
vn -0.5774 0.1882 -0.7945
vn -0.4112 -0.1842 -0.8928
vn -0.4182 0.2058 -0.8847
vn -0.4960 0.4960 -0.7127
vn -0.4978 0.7106 -0.4972
vn -0.7106 0.4972 0.4978
vn -0.4986 0.7091 0.4986
vn -0.4978 0.4972 0.7106
vn 0.4182 -0.2058 -0.8847
vn 0.4112 0.1842 -0.8928
vn 0.4960 -0.7127 -0.4960
vn 0.4978 -0.4972 -0.7106
vn 0.7091 -0.4986 -0.4986
vn 0.5774 -0.7945 -0.1882
vn 0.7906 -0.5867 -0.1755
vn 0.5867 -0.7906 0.1755
vn 0.7906 -0.5867 0.1755
vn 0.4972 -0.7106 0.4978
vn 0.7106 -0.4972 0.4978
vn 0.4986 -0.4986 0.7091
vn 0.5867 -0.1755 0.7906
vn 0.7943 -0.1867 0.5781
vn 0.5781 0.1867 0.7943
vn 0.7906 0.1755 0.5867
vn 0.4978 0.4972 0.7106
vn 0.7091 0.4986 0.4986
vn 0.4960 0.7127 0.4960
vn 0.4112 -0.1842 0.8928
vn 0.4182 0.2058 0.8847
vn 0.4182 -0.8847 -0.2058
vn 0.4106 -0.8927 0.1857
s 1
f 3//3 2//2 1//1
f 3//3 4//4 2//2
f 5//5 6//6 4//4
f 5//5 8//8 7//7
f 11//11 8//8 9//9
f 8//8 10//10 12//12
f 10//10 13//13 12//12
f 14//14 15//15 13//13
f 17//17 15//15 14//14
f 16//16 17//17 18//18
f 11//11 18//18 17//17
f 21//21 18//18 19//19
f 21//21 22//22 20//20
f 25//25 22//22 23//23
f 25//25 26//26 24//24
f 28//28 24//24 26//26
f 28//28 29//29 30//30
f 28//28 31//31 32//32
f 33//33 31//31 34//34
f 33//33 35//35 36//36
f 37//37 35//35 38//38
f 37//37 39//39 40//40
f 40//40 41//41 42//42
f 43//43 41//41 44//44
f 43//43 45//45 46//46
f 47//47 45//45 48//48
f 47//47 49//49 50//50
f 51//51 49//49 52//52
f 53//53 52//52 54//54
f 53//53 55//55 56//56
f 57//57 55//55 58//58
f 57//57 59//59 60//60
f 61//61 59//59 62//62
f 63//63 62//62 64//64
f 63//63 65//65 66//66
f 67//67 65//65 68//68
f 67//67 69//69 70//70
f 71//71 69//69 72//72
f 71//71 73//73 27//27
f 72//72 74//74 73//73
f 74//74 29//29 73//73
f 74//74 76//76 75//75
f 79//79 76//76 77//77
f 79//79 80//80 78//78
f 84//84 82//82 81//81
f 79//79 84//84 81//81
f 83//83 85//85 82//82
f 89//89 87//87 86//86
f 85//85 86//86 87//87
f 86//86 90//90 89//89
f 89//89 90//90 92//92
f 88//88 93//93 87//87
f 88//88 95//95 94//94
f 94//94 97//97 98//98
f 100//100 95//95 96//96
f 98//98 101//101 93//93
f 94//94 98//98 93//93
f 104//104 101//101 102//102
f 104//104 105//105 106//106
f 107//107 105//105 108//108
f 110//110 101//101 103//103
f 110//110 103//103 80//80
f 112//112 109//109 110//110
f 102//102 113//113 105//105
f 101//101 109//109 93//93
f 111//111 93//93 109//109
f 111//111 85//85 87//87
f 83//83 91//91 86//86
f 116//116 91//91 114//114
f 112//112 85//85 111//111
f 84//84 114//114 83//83
f 117//117 84//84 118//118
f 119//119 80//80 104//104
f 103//103 104//104 80//80
f 112//112 80//80 81//81
f 84//84 77//77 118//118
f 78//78 120//120 76//76
f 119//119 121//121 120//120
f 64//64 116//116 65//65
f 123//123 61//61 63//63
f 116//116 62//62 115//115
f 61//61 122//122 60//60
f 115//115 62//62 59//59
f 125//125 56//56 57//57
f 125//125 126//126 124//124
f 126//126 127//127 124//124
f 128//128 129//129 127//127
f 130//130 131//131 129//129
f 132//132 133//133 131//131
f 135//135 133//133 132//132
f 137//137 134//134 135//135
f 139//139 136//136 137//137
f 138//138 139//139 140//140
f 142//142 134//134 136//136
f 143//143 129//129 144//144
f 58//58 92//92 90//90
f 143//143 56//56 127//127
f 124//124 127//127 56//56
f 54//54 96//96 55//55
f 92//92 55//55 96//96
f 100//100 54//54 52//52
f 143//143 50//50 51//51
f 100//100 49//49 99//99
f 144//144 47//47 50//50
f 48//48 99//99 49//49
f 144//144 131//131 46//46
f 47//47 144//144 46//46
f 48//48 97//97 99//99
f 95//95 99//99 97//97
f 44//44 97//97 45//45
f 133//133 141//141 42//42
f 43//43 133//133 42//42
f 108//108 113//113 41//41
f 44//44 41//41 113//113
f 141//141 40//40 42//42
f 39//39 108//108 41//41
f 142//142 40//40 141//141
f 107//107 39//39 38//38
f 107//107 38//38 35//35
f 138//138 36//36 136//136
f 142//142 136//136 36//36
f 35//35 121//121 106//106
f 107//107 35//35 106//106
f 138//138 32//32 33//33
f 34//34 120//120 121//121
f 75//75 30//30 29//29
f 27//27 29//29 26//26
f 25//25 1//1 70//70
f 71//71 25//25 70//70
f 137//137 15//15 16//16
f 128//128 13//13 130//130
f 11//11 14//14 10//10
f 123//123 6//6 122//122
f 3//3 19//19 5//5
f 9//9 5//5 19//19
f 2//2 123//123 66//66
f 67//67 2//2 66//66
f 7//7 125//125 6//6
f 3//3 23//23 21//21
f 11//11 9//9 19//19
f 126//126 8//8 12//12
f 128//128 126//126 12//12
f 20//20 140//140 139//139
f 139//139 16//16 18//18
f 20//20 139//139 18//18
f 132//132 13//13 135//135
f 15//15 135//135 13//13
f 2//2 70//70 1//1
f 123//123 63//63 66//66
f 125//125 60//60 6//6
f 122//122 6//6 60//60
f 25//25 71//71 27//27
f 53//53 143//143 51//51
f 24//24 32//32 22//22
f 140//140 22//22 32//32
f 37//37 142//142 36//36
f 133//133 46//46 131//131
f 68//68 118//118 69//69
f 65//65 114//114 68//68
f 117//117 68//68 114//114
f 59//59 90//90 115//115
f 91//91 115//115 90//90
f 72//72 118//118 77//77
f 74//74 72//72 77//77
f 82//82 112//112 81//81
f 89//89 96//96 88//88
f 75//75 120//120 30//30
f 31//31 30//30 120//120
f 119//119 106//106 121//121
f 113//113 98//98 97//97
f 3//3 5//5 4//4
f 5//5 7//7 6//6
f 5//5 9//9 8//8
f 11//11 10//10 8//8
f 10//10 14//14 13//13
f 17//17 16//16 15//15
f 11//11 19//19 18//18
f 21//21 20//20 18//18
f 21//21 23//23 22//22
f 25//25 24//24 22//22
f 25//25 27//27 26//26
f 28//28 26//26 29//29
f 28//28 30//30 31//31
f 33//33 32//32 31//31
f 33//33 34//34 35//35
f 37//37 36//36 35//35
f 37//37 38//38 39//39
f 40//40 39//39 41//41
f 43//43 42//42 41//41
f 43//43 44//44 45//45
f 47//47 46//46 45//45
f 47//47 48//48 49//49
f 51//51 50//50 49//49
f 53//53 51//51 52//52
f 53//53 54//54 55//55
f 57//57 56//56 55//55
f 57//57 58//58 59//59
f 61//61 60//60 59//59
f 63//63 61//61 62//62
f 63//63 64//64 65//65
f 67//67 66//66 65//65
f 67//67 68//68 69//69
f 71//71 70//70 69//69
f 71//71 72//72 73//73
f 74//74 75//75 29//29
f 74//74 77//77 76//76
f 79//79 78//78 76//76
f 79//79 81//81 80//80
f 84//84 83//83 82//82
f 83//83 86//86 85//85
f 89//89 88//88 87//87
f 86//86 91//91 90//90
f 88//88 94//94 93//93
f 88//88 96//96 95//95
f 94//94 95//95 97//97
f 100//100 99//99 95//95
f 98//98 102//102 101//101
f 104//104 103//103 101//101
f 104//104 102//102 105//105
f 107//107 106//106 105//105
f 110//110 109//109 101//101
f 112//112 111//111 109//109
f 102//102 98//98 113//113
f 111//111 87//87 93//93
f 83//83 114//114 91//91
f 116//116 115//115 91//91
f 112//112 82//82 85//85
f 84//84 117//117 114//114
f 119//119 78//78 80//80
f 112//112 110//110 80//80
f 84//84 79//79 77//77
f 78//78 119//119 120//120
f 123//123 122//122 61//61
f 116//116 64//64 62//62
f 125//125 124//124 56//56
f 126//126 128//128 127//127
f 128//128 130//130 129//129
f 130//130 132//132 131//131
f 135//135 134//134 133//133
f 137//137 136//136 134//134
f 139//139 138//138 136//136
f 142//142 141//141 134//134
f 143//143 127//127 129//129
f 58//58 55//55 92//92
f 143//143 53//53 56//56
f 54//54 100//100 96//96
f 143//143 144//144 50//50
f 100//100 52//52 49//49
f 144//144 129//129 131//131
f 48//48 45//45 97//97
f 44//44 113//113 97//97
f 133//133 134//134 141//141
f 108//108 105//105 113//113
f 142//142 37//37 40//40
f 107//107 108//108 39//39
f 138//138 33//33 36//36
f 35//35 34//34 121//121
f 138//138 140//140 32//32
f 34//34 31//31 120//120
f 27//27 73//73 29//29
f 25//25 23//23 1//1
f 137//137 135//135 15//15
f 128//128 12//12 13//13
f 11//11 17//17 14//14
f 123//123 4//4 6//6
f 3//3 21//21 19//19
f 2//2 4//4 123//123
f 7//7 126//126 125//125
f 3//3 1//1 23//23
f 126//126 7//7 8//8
f 20//20 22//22 140//140
f 139//139 137//137 16//16
f 132//132 130//130 13//13
f 2//2 67//67 70//70
f 125//125 57//57 60//60
f 24//24 28//28 32//32
f 133//133 43//43 46//46
f 68//68 117//117 118//118
f 65//65 116//116 114//114
f 59//59 58//58 90//90
f 72//72 69//69 118//118
f 89//89 92//92 96//96
f 75//75 76//76 120//120
f 119//119 104//104 106//106
